<svg width="149" height="192" viewBox="0 0 149 192" fill="none" xmlns="http://www.w3.org/2000/svg">
<path d="M44.526 118.673C38.8516 114.197 32.7962 109.907 28.6593 103.863C19.9518 93.2048 13.2495 80.8673 8.66726 67.8996C5.8963 59.4668 4.94829 50.4264 1.37449 42.3209C-2.35909 36.432 2.01754 29.999 8.44998 28.1282C11.3116 27.5752 16.3468 24.8662 10.269 26.8045C4.8187 30.8118 4.29355 23.1635 9.88126 22.6789C13.6947 22.1719 15.0987 19.0428 13.7931 16.2264C9.69808 13.5476 23.7195 10.6091 16.6635 6.61345C9.3181 -1.33576 26.9425 -2.86562 22.5932 6.16309C21.5536 13.1051 34.9124 4.8882 31.8102 12.9058C34.9621 16.7568 43.6092 13.784 43.3919 19.1835C47.9819 19.5 49.5574 23.3696 53.8619 23.6676C58.3302 25.6898 66.4219 27.2812 67.9398 32.326C63.5106 35.841 53.2569 25.0646 52.7619 34.7957C54.1016 49.174 53.7596 63.9851 59.0044 77.6766C61.485 85.9658 67.5024 92.4907 72.9332 98.9481C78.1322 105.271 85.1736 109.725 92.3514 113.472C98.6464 116.449 105.433 118.421 112.295 119.662C115.076 117.528 119.99 109.595 124.328 112.938C124.538 116.701 115.716 120.799 123.914 120.383C128.732 118.925 132.07 124.115 136.036 119.432C139.69 123.772 151.222 116.662 148.622 125.531C145.106 127.805 139.979 126.431 136.459 129.561C130.655 126.653 126.034 132.16 119.606 131.465C112.47 132.747 105.207 133.262 97.9732 133.273C86.1021 132.334 73.9806 131.938 62.6883 127.794C56.325 125.939 50.1176 122.306 44.526 118.673ZM54.5508 123.031C60.7621 125.722 66.8369 128.561 73.6454 129.419C84.4467 130.923 95.6017 133.243 106.441 131.129C101.535 128.908 96.462 131.991 91.5748 129.541C85.7143 130.805 79.4232 129.217 73.4623 128.435C66.6879 125.409 59.3736 123.329 53.0289 119.398C45.097 116.495 57.1279 123.123 59.2704 123.661C64.2258 126.481 53.82 122.214 52.3508 121.043C48.1992 118.707 47.6702 119.196 51.9406 121.566C52.7999 122.07 53.6495 122.6 54.5508 123.031ZM42.7294 114.655C48.7507 116.891 42.7031 110.411 39.9477 110.785C38.7259 108.66 35.2778 107.316 37.7097 106.175C33.337 107.698 33.1275 100.386 31.0727 101.432C26.4446 99.967 29.2721 94.7767 23.7575 91.587C23.2547 88.2284 18.2808 85.3171 16.6976 80.2528C15.997 77.6581 11.0758 70.213 14.0981 77.1423C16.6703 83.8127 21.196 89.5296 24.9637 95.2348C27.8866 100.668 31.3425 106.351 36.6672 109.74C38.4638 111.468 40.1952 114.113 42.7294 114.655ZM25.3904 95.5631C26.4904 97.5355 25.5989 94.6506 25.3904 95.5631ZM49.9423 117.334C51.2741 116.735 48.0238 116.579 49.9423 117.334ZM53.2072 118.529C52.8691 116.879 51.7155 119.452 53.2072 118.529ZM57.2993 120.238C59.2441 118.379 54.2965 119.066 57.2993 120.238ZM64.3095 124.157C65.4933 122.405 60.5224 123.497 64.3095 124.157ZM50.8484 114.747C53.8697 112.785 46.9394 114.72 50.8484 114.747ZM53.9155 116.281C53.8278 115.246 52.8233 116.746 53.9155 116.281ZM69.2493 125.878C71.7153 127.439 83.6478 129.297 76.1767 126.519C74.9238 126.783 62.3229 122.943 69.2493 125.878ZM44.907 106.866C44.6673 105.829 41.0779 105.717 44.907 106.866ZM52.0429 111.041C53.9038 109.74 48.1875 110.037 52.0429 111.041ZM58.0486 114.731C60.7163 113.724 53.7255 113.72 58.0486 114.731ZM41.9986 103.695C44.8914 105.919 53.668 103.981 46.4289 102.367C43.1367 100.608 35.7153 99.4024 40.7739 103.428L41.9986 103.695ZM62.1173 116.006C63.3235 113.949 57.0626 114.83 62.1173 116.006ZM56.0045 111.136C63.0761 113.14 50.0563 106.648 54.2585 110.396L55.1909 110.82L56.0045 111.136ZM68.2604 118.238C74.9588 118.303 62.2089 117.311 68.2604 118.238ZM39.4226 99.8098C39.1595 98.5583 37.7711 99.9133 39.4226 99.8098ZM79.5907 124.611C79.769 122.352 77.4053 126.294 79.5907 124.611ZM50.8552 106.828C50.4479 105.637 48.7624 106.778 50.8552 106.828ZM40.0578 99.0243C43.9025 98.7918 34.7907 97.3264 40.0578 99.0243ZM27.266 90.7351C26.7866 88.8849 23.0833 87.4117 27.266 90.7351ZM60.8458 112.102C60.5146 112.277 60.1424 111.296 60.8458 112.102ZM81.744 124.963C81.6797 123.73 80.606 125.428 81.744 124.963ZM58.9966 110.187C59.3736 108.599 55.7161 109.705 58.9966 110.187ZM43.426 100.291C46.2886 99.9856 38.8399 98.3522 43.426 100.291ZM69.7638 116.701C74.2242 114.93 65.4173 115.838 69.7638 116.701ZM56.0658 107.378C61.2034 108.041 49.9501 103.871 54.9356 107.004L56.0658 107.378ZM73.9231 118.387C78.7226 115.514 77.1393 125.123 82.0645 119.2C86.9205 115.644 77.8701 123.596 83.8534 119.834C88.1842 116.929 94.5777 121.211 98.6162 122.604C101.52 122.463 104.344 125.123 107.324 123.504C113.056 121.955 96.1122 121.207 100.553 118.463C95.3084 119.994 91.4345 116.639 88.8536 113.27C82.9697 111.907 76.1689 108.892 73.2304 103.669C72.032 101.711 74.9588 103.947 72.1957 100.742C68.6521 97.5814 66.8827 93.9902 64.5034 90.148C61.6604 88.6289 61.3252 84.1526 61.0397 89.9995C61.0631 86.3087 57.6072 83.8244 56.7625 84.8551C56.7469 81.302 60.462 83.0839 57.8625 80.455C57.3032 76.772 55.4608 72.9337 54.9084 68.774C54.049 66.7703 54.7866 62.4777 51.9708 67.0145C50.9468 71.8112 51.6317 61.1227 53.2267 64.6445C55.3195 61.0504 52.4726 61.4734 52.3586 61.9697C53.7216 58.9364 53.2228 54.6311 52.001 56.2723C52.7278 53.0553 53.1507 44.4349 50.9166 45.9648C52.2709 42.5993 53.4859 30.5705 47.601 35.1581C45.2188 35.1923 41.0896 36.0246 39.141 36.9976C45.2568 40.3788 38.5242 38.2188 36.031 37.6805C35.7075 40.8096 33.2415 39.4585 30.1587 39.4888C35.0839 40.0994 27.761 44.5375 24.9413 42.8133C21.272 44.5688 28.1039 48.9571 25.0134 50.315C25.3943 52.3568 19.3955 49.5755 19.8641 54.2999C16.3049 52.7954 19.377 59.9016 21.158 57.4974C27.2134 59.1425 25.4206 62.886 25.5726 66.4459C24.5866 68.518 20.701 61.5731 24.7084 61.8935C21.5458 56.7451 21.2116 60.0315 18.5848 62.424C17.9759 62.5959 25.2833 65.8276 20.6972 67.4229C24.7318 68.0491 24.8497 71.5904 25.672 73.8305C28.0961 76.3637 27.5973 71.0326 30.5017 74.0786C28.6632 71.3647 20.7731 66.4342 27.1257 68.0149C27.0916 65.2863 25.976 63.0844 27.9246 63.1371C29.8548 59.6378 25.9039 71.7692 30.2503 67.3203C31.4526 66.7937 31.7537 63.8171 33.9157 67.6026C37.055 70.7014 35.0498 72.9444 30.6196 70.1055C31.4107 72.8038 36.5454 73.765 35.5789 77.9824C36.6019 81.6918 38.0332 80.3251 39.2813 80.1111C40.2595 83.714 40.8158 81.0656 40.8616 79.3481C45.3406 80.3104 44.2902 82.9657 45.6942 84.8209C48.7809 86.2169 41.2757 75.3525 46.574 81.554C52.1491 86.6028 48.6669 88.709 43.6628 87.9001C46.8293 87.6442 47.8485 92.1937 51.811 92.0335C55.4228 93.7577 57.8703 100.375 51.6434 97.6195C49.4853 95.6657 41.8389 93.2575 48.0852 96.9708C53.8473 99.6495 58.4295 101.249 63.99 104.611C67.9671 107.458 69.6868 110.72 71.1941 111.366C67.8492 112.968 61.1167 110.087 66.1169 109.206C62.9962 108.637 59.4876 107.054 62.4749 110.95C65.0169 113.079 71.4756 112.854 72.637 113.094C71.6549 115.262 69.9694 115.434 72.675 115.602C69.6566 117.216 73.6454 117.468 73.9231 118.387ZM67.7499 100.906C65.9113 98.9784 65.4359 95.3726 67.4225 98.5085C68.4426 98.9208 70.6845 104.405 67.7499 100.906ZM87.8568 113.712C89.0026 113.636 87.8909 114.586 87.8568 113.712ZM64.8503 96.1815C65.5119 98.4284 64.7772 93.2693 64.8503 96.1815ZM62.852 93.4871C65.7632 94.7542 60.538 89.0109 62.852 93.4871ZM38.6304 76.7271C39.9896 76.3637 39.3008 79.0541 38.6304 76.7271ZM57.9083 87.2016C58.8865 89.8354 58.7413 84.0608 57.9083 87.2016ZM44.2902 77.7069C46.2964 79.3335 43.3315 75.9748 44.2902 77.7069ZM55.9743 81.4622C53.7859 76.5473 57.5273 78.7757 56.4614 82.2672L55.9743 81.4622ZM35.8225 67.9875C34.8442 66.3737 33.2269 61.6415 33.7481 60.1956C34.2158 62.55 38.7376 70.3234 35.9628 63.4165C32.8995 57.6273 39.6281 65.2932 40.3209 66.74C40.6444 68.1751 38.4288 66.3473 39.9282 69.7167C37.1923 65.8813 38.3148 71.8346 35.8225 67.9875ZM29.5956 63.6832C31.0191 66.2555 29.8509 59.9318 29.5956 63.6832ZM32.3968 64.6523C34.6611 68.5981 33.7325 61.8212 32.3968 64.6523ZM25.6564 59.4248C23.3385 57.1115 21.6598 54.9828 25.7665 57.9897C27.3459 58.0503 22.2502 53.1471 26.1475 56.4325C30.2425 57.1808 28.1682 63.1684 25.6564 59.4248ZM29.1961 59.333C30.5436 57.9936 29.9113 60.6499 29.1961 59.333ZM31.3766 60.0315C33.8543 61.6415 29.3325 56.1961 31.3766 60.0315ZM27.0458 55.8835C20.3055 49.8647 35.5136 59.0272 28.1458 56.9972L27.0458 55.8835ZM46.3607 67.1327C43.4416 65.3811 45.5841 54.7884 46.5818 62.0312C49.4171 61.111 46.425 65.7748 48.5373 65.7289C48.207 68.6704 47.259 69.7284 46.3607 67.1327ZM53.5044 71.3687C54.1055 73.5521 53.7898 68.1751 53.5044 71.3687ZM52.2641 70.1358C52.5836 68.774 52.2943 71.7428 52.2641 70.1358ZM28.366 53.9062C24.0352 47.9147 40.9522 59.966 31.1409 55.4253C30.1169 55.1547 28.8804 55.059 28.366 53.9062ZM42.1243 61.2184C43.0382 62.0537 41.7142 56.1736 42.1243 61.2184ZM52.568 67.9377C53.3748 65.0646 52.6294 69.8388 52.568 67.9377ZM29.0324 51.6202C31.6056 51.0673 39.6963 56.1502 32.2672 53.0709C31.4419 52.1546 29.6794 52.5707 29.0324 51.6202ZM51.1329 62.6643C51.4076 57.5052 52.6713 59.585 51.1446 63.4048L51.1329 62.6643ZM30.947 49.8236C31.9973 48.2811 28.1604 42.8514 31.4984 47.8766C32.9414 49.0255 35.6734 49.8002 33.261 50.2847C37.055 53.6395 32.3363 51.1933 30.947 49.8236ZM50.0407 61.0543C50.7646 55.1772 50.6808 64.496 50.0407 61.0543ZM28.7548 44.3968C29.5576 44.053 29.1805 45.4685 28.7548 44.3968ZM33.7364 47.3696C36.1001 50.3766 35.0186 44.6714 33.7364 47.3696ZM47.7841 55.2035C48.0501 56.7109 47.7725 54.17 47.7841 55.2035ZM46.9696 53.3992C48.7848 55.9519 45.021 48.5751 46.9696 53.3992ZM45.7741 50.2349C46.8858 52.7388 45.4477 48.243 45.7741 50.2349ZM47.7228 47.0599C46.3831 44.6977 49.4132 36.642 49.7523 41.638C48.3395 45.5301 49.345 47.7057 50.3261 42.485C52.1462 38.379 49.9345 50.5944 47.7228 47.0599ZM49.725 35.0819C50.3076 34.3639 49.8546 35.9475 49.725 35.0819ZM46.3802 101.15C46.4825 101.589 45.588 100.455 46.3802 101.15ZM53.2686 104.642C57.1006 105.63 57.0821 104.046 53.6184 103.573C51.7574 101.837 45.8774 99.9934 51.1407 103.359C51.4875 104.245 52.5875 104.222 53.2686 104.642ZM39.6661 95.5816C41.7746 97.1623 47.6166 100.054 42.6729 96.1854C44.3399 94.2423 39.483 93.2087 41.0935 91.9074C36.9946 89.3919 37.8578 89.6175 40.732 89.6976C35.8069 87.4879 41.4433 87.6559 41.1773 86.5227C39.2784 86.1485 31.742 83.164 36.1761 86.7669C31.6699 84.4653 35.1024 87.6256 33.7403 87.2934C29.1308 86.0342 37.8432 90.8123 33.0096 89.6254C35.651 91.7238 40.1231 95.0062 34.1242 91.8459C33.337 92.9869 38.418 94.7161 39.6661 95.5816ZM46.8702 99.7336C55.6284 102.562 42.5735 96.2723 46.8702 99.7336ZM83.7501 122.134C83.8641 120.391 82.5546 123.622 83.7501 122.134ZM87.5412 123.734C89.5619 121.772 87.625 126.863 90.8899 123.253C90.924 120.669 90.7915 119.143 87.1378 122.283C86.1284 122.845 85.6802 125.221 87.5412 123.734ZM27.3693 85.8437C26.7486 83.3975 23.0189 83.4082 27.3693 85.8437ZM31.4146 88.5029C29.9113 86.0039 26.052 86.2403 31.4146 88.5029ZM54.4446 102.428C56.6943 104.432 64.7704 103.897 57.1736 102.676C56.0503 101.008 50.0338 101.409 54.4446 102.428ZM86.0982 122.032C89.558 119.12 82.7456 123.329 86.0982 122.032ZM93.2955 126.989C93.3179 126.054 91.8038 127.397 93.2955 126.989ZM93.3072 125.68C97.1392 121.612 89.596 125.92 93.3072 125.68ZM17.4127 77.4861C14.1478 72.8155 15.3842 70.7161 12.2333 66.9002C11.635 63.9812 6.82872 57.3635 9.74777 64.3739C12.4194 68.476 13.2115 74.826 17.4127 77.4861ZM92.1039 124.386C99.157 119.818 89.2121 122.398 92.1039 124.386ZM97.486 126.5C101.018 123.462 95.2519 125.866 97.486 126.5ZM26.1699 80.6797C27.1793 79.1723 23.5597 80.4853 26.1699 80.6797ZM96.3626 125.057C99.7805 122.848 95.5754 123.187 95.743 125.26L96.3626 125.057ZM49.9764 95.7419C49.8585 94.2462 48.169 95.8679 49.9764 95.7419ZM52.8418 97.3948C51.9289 95.5475 51.4417 97.685 52.8418 97.3948ZM101.847 126.55C106.228 123.382 99.195 125.942 100.93 127.153L101.847 126.55ZM100.169 125.737C103.739 122.741 96.4045 127.065 100.169 125.737ZM108.739 131.457C111.134 129.85 105.828 130.938 108.739 131.457ZM28.366 79.5924C31.5744 80.3133 41.1958 87.5181 35.5214 80.0926C32.614 79.2299 34.3571 72.1053 31.3922 73.3645C33.3828 76.6997 33.0281 78.1153 28.8493 76.0168C23.6016 73.4446 25.9 77.2878 26.9279 78.3488C25.5268 78.6692 28.7772 79.566 28.366 79.5924ZM13.7405 68.011C14.3144 65.6253 8.44609 54.8987 10.9696 62.634C11.8786 64.2557 11.7841 67.3271 13.7405 68.011ZM40.5869 84.6069C40.507 84.4086 38.9315 83.2216 40.5869 84.6069ZM44.6556 85.5575C44.6556 83.0311 40.1572 84.5307 44.6556 85.5575ZM79.9366 107.855C79.2634 106.129 77.2767 107.817 79.9366 107.855ZM81.63 109.094C81.3786 108.129 80.6518 109.282 81.63 109.094ZM95.6134 117.929C96.957 116.933 93.9346 117.8 95.6134 117.929ZM21.044 69.8808C24.8916 68.3881 16.9217 68.816 21.044 69.8808ZM76.8305 105.118C76.7857 102.622 74.3762 105.741 76.8305 105.118ZM19.525 66.3277C21.9949 65.4925 17.2374 65.7787 19.525 66.3277ZM26.695 69.8114C26.6532 68.9918 25.938 70.125 26.695 69.8114ZM114.175 123.6C117.352 122.955 124.595 125.221 125.764 122.757C121.904 122.661 112.416 120.024 111.967 123.382L112.812 123.516L114.175 123.6ZM28.975 70.3878C29.0324 67.8576 27.0078 70.2931 28.975 70.3878ZM10.1209 57.2727C9.26451 52.4525 6.86282 56.5429 10.1209 57.2727ZM14.6155 58.4059C14.6729 56.8565 10.5009 57.0128 14.6155 58.4059ZM17.1847 59.673C16.606 60.432 16.4423 59.0692 17.1847 59.673ZM33.3555 70.0713C34.1174 69.3689 31.552 69.5526 33.3555 70.0713ZM15.4758 56.8184C15.0383 53.1774 10.2651 56.2723 15.4758 56.8184ZM6.25387 50.8191C6.12429 49.1398 5.35555 51.4522 6.25387 50.8191ZM7.62766 49.7816C7.40357 47.7887 6.44776 50.0327 7.62766 49.7816ZM15.202 54.3145C18.4065 53.0553 9.36682 51.7042 14.5473 54.0781L15.202 54.3145ZM116.607 117.12C118.658 115.235 114.004 116.537 116.607 117.12ZM128.858 123.485C129.68 121.051 126.788 123.806 128.858 123.485ZM15.9776 50.3346C16.3166 47.9763 13.4356 50.8035 15.9776 50.3346ZM5.19576 43.0917C4.61702 39.7643 4.69691 33.9213 10.2349 35.8947C2.84376 37.3679 15.354 45.11 13.7746 38.9964C16.8837 39.1498 19.8563 37.154 18.2234 40.1795C24.3508 39.5044 28.595 34.1773 34.513 34.9256C39.1215 34.3111 44.1607 33.849 49.1277 31.987C53.2111 31.693 57.1425 27.2851 54.9054 24.6709C49.3372 24.198 43.5059 24.8965 37.3521 26.1255C30.5319 27.545 24.3362 30.2461 17.4546 31.4067C10.7445 32.3114 18.8021 33.8949 16.8798 34.2496C13.382 35.4668 21.0547 36.2874 16.4267 37.5731C13.569 37.0279 10.5925 36.0432 11.8143 33.0206C5.38965 33.8608 -0.258465 36.5317 4.8187 43.0878L5.19576 43.0917ZM20.6825 35.1845C22.1859 29.6209 28.7509 39.7643 23.1485 35.925C22.4821 35.4209 21.3782 35.0125 20.6825 35.1845ZM20.9748 32.4862C23.1485 30.8645 22.1284 33.3987 20.9748 32.4862ZM23.7341 32.5321C23.9329 29.9716 30.0564 33.8871 24.7435 33.4524L23.7341 32.5321ZM27.5096 31.0101C28.8912 29.3913 27.91 32.4442 27.5096 31.0101ZM28.4771 30.3614C30.7755 27.5948 41.4813 28.5942 33.6449 30.0898C31.5442 28.5023 29.9347 31.0247 28.4771 30.3614ZM42.4517 28.2014C49.3976 30.8841 42.1058 20.6411 42.4517 28.2014ZM46.4182 28.178C47.8679 24.37 52.0468 26.6481 47.0914 27.4111C47.1976 27.8195 46.9433 29.3806 46.4182 28.178ZM14.4138 48.3807C18.7446 45.7206 9.81598 46.0723 14.4138 48.3807ZM17.6183 49.2697C19.1373 47.6519 14.3144 48.6132 17.6183 49.2697ZM8.1801 42.5573C10.6539 40.6494 5.24935 41.8324 8.1801 42.5573ZM136.089 122.791C136.162 120.577 134.197 123.786 136.089 122.791ZM123.092 113.895C123.461 111.35 121.421 114.117 123.092 113.895ZM139.663 123.65C143.123 123.661 150.148 122.569 142.62 122.573C141.436 122.757 135.736 122.719 139.663 123.65ZM20.4351 47.7086C23.2362 47.5181 24.8156 44.6137 19.8904 44.7778C12.2596 43.9885 26.6229 47.3999 18.9122 46.423C17.8775 47.1098 20.3737 47.9001 20.4351 47.7086ZM22.9011 48.961C22.6078 47.1596 22.0329 49.9184 22.9011 48.961ZM25.8279 41.1378C27.0419 39.6265 24.1453 40.7334 25.8279 41.1378ZM16.5105 25.5257C21.5117 23.8239 28.3475 21.9081 30.7073 26.3658C28.3056 23.4692 29.7369 20.6147 32.0051 24.8545C35.2135 29.1403 36.8192 22.9046 34.7332 21.4656C37.1124 24.4266 39.8142 25.8275 36.3242 21.6531C40.1192 17.0772 28.7314 22.252 26.1436 22.1983C24.8994 22.759 13.2875 25.1671 16.5105 25.5257ZM19.4413 19.9015C22.2921 17.7455 29.3023 21.1872 24.8039 17.7562C24.3625 17.3674 14.9545 20.3587 19.4413 19.9015ZM29.8353 20.3323C33.1694 20.4164 28.3972 15.8366 32.3704 17.9125C31.7196 15.776 27.7424 15.3755 25.7977 14.5206C24.6977 16.4745 28.0347 20.3587 29.8353 20.3323ZM21.2642 10.8718C22.4178 9.30389 19.2396 11.67 21.2642 10.8718ZM25.5122 11.8908C30.8895 11.1776 24.1414 9.57059 24.4268 11.8341L25.5122 11.8908ZM17.5803 5.67072C13.7931 0.713822 24.7016 6.50306 20.853 1.31267C17.6144 -1.2703 14.5054 4.22488 17.5803 5.67072ZM66.1627 31.9069C67.8989 28.8228 58.9966 27.7472 64.9945 30.8147C65.546 30.9984 65.4212 32.1199 66.1627 31.9069Z" fill="#00AEFF"/>
<path d="M30.9103 146.769C30.5266 148.29 30.2884 150.842 30.1991 154.424C30.1991 155.128 29.883 155.48 29.2496 155.48C28.6156 155.48 28.1746 155.173 27.9249 154.561C27.2462 152.904 26.6032 151.749 25.9903 151.09C25.267 150.32 24.3054 149.854 23.1062 149.696C21.8171 149.491 18.6054 149.389 13.4707 149.389C12.2949 149.389 11.5246 149.514 11.1639 149.765C10.9377 149.923 10.8249 150.263 10.8249 150.785V166.197C10.8249 166.719 11.1524 166.967 11.8069 166.946C13.8217 166.923 16.739 166.785 20.5611 166.537C21.3079 166.445 21.8122 166.202 22.0716 165.805C22.3334 165.408 22.588 164.383 22.8353 162.726C22.9928 161.819 23.5254 161.467 24.4303 161.672C25.1988 161.831 25.5288 162.183 25.4154 162.726C24.7814 165.812 24.5763 169.826 24.8025 174.771C24.8266 175.36 24.4538 175.678 23.6835 175.724C23.0495 175.792 22.6538 175.452 22.4957 174.703C21.9094 171.868 20.8157 170.353 19.2225 170.159C17.6276 169.968 15.0306 169.871 11.4347 169.871C11.0275 169.871 10.8249 170.018 10.8249 170.313V185.623C10.8249 186.757 11.2417 187.53 12.0784 187.936C12.7359 188.277 14.1493 188.583 16.3198 188.856C17.4297 188.969 17.9147 189.458 17.7808 190.318C17.6439 191.067 16.6497 191.362 14.793 191.204C9.43197 190.772 5.00903 190.795 1.52653 191.273C0.5529 191.407 0.0678958 191.01 0.0678958 190.082C0.0678958 189.491 0.5529 189.151 1.52653 189.061C3.74343 188.81 4.85098 186.859 4.85098 183.209V154.083C4.85098 152.588 4.58495 151.437 4.0547 150.631C3.52204 149.826 2.53213 149.093 1.08556 148.436C0.180701 148.028 -0.158319 147.473 0.0678958 146.769C0.180701 146.339 0.362276 146.1 0.609604 146.055C0.835819 145.987 1.43664 146.032 2.40726 146.192C3.83331 146.419 7.19335 146.532 12.4856 146.532C18.7303 146.532 24.1239 146.395 28.6723 146.124C30.187 146.032 30.9459 146.157 30.9459 146.497C30.9459 146.589 30.9344 146.679 30.9103 146.769Z" fill="#00AEFF"/>
<path d="M52.9155 189.959C52.9155 190.866 52.4064 191.263 51.3887 191.149C48.2688 190.854 44.3996 190.899 39.7854 191.284C38.857 191.376 38.287 191.352 38.0704 191.218C37.8557 191.081 37.7495 190.708 37.7495 190.093C37.7495 189.55 38.3648 189.091 39.5972 188.716C40.832 188.343 41.4467 187.225 41.4467 185.366V154.575C41.4467 152.737 41.1807 151.387 40.6505 150.525C40.1178 149.663 39.1846 148.994 37.8508 148.519C37.1487 148.269 36.7976 147.917 36.7976 147.463C36.7976 146.783 37.3067 146.272 38.3244 145.932C39.8632 145.433 41.4588 144.663 43.1105 143.619C44.4678 142.802 45.328 142.395 45.6881 142.395C46.5248 142.395 46.9447 142.972 46.9447 144.129C46.9447 144.04 46.8994 145.174 46.8077 147.532C46.742 149.776 46.7184 151.987 46.742 154.166L46.8759 184.548C46.8759 185.932 47.2155 186.937 47.8942 187.561C48.5728 188.184 49.7389 188.598 51.3887 188.801C52.4064 188.914 52.9155 189.3 52.9155 189.959Z" fill="#00AEFF"/>
<path d="M83.6053 187.953C83.6053 188.43 82.7402 189.148 81.0108 190.112C79.2789 191.076 77.8932 191.558 76.8538 191.558C75.9701 191.558 75.1907 191.128 74.5121 190.265C73.8334 189.404 73.3569 188.973 73.086 188.973C72.8833 188.973 71.809 189.439 69.8623 190.367C67.9187 191.298 65.9605 191.764 63.9928 191.764C62.1384 191.764 60.5875 191.218 59.3436 190.131C57.9863 188.928 57.3077 187.296 57.3077 185.231C57.3077 181.306 61.7873 178.494 70.746 176.794C72.2825 176.498 73.0649 175.874 73.086 174.922L73.1548 172.744C73.2911 169.025 71.6509 167.166 68.2342 167.166C67.2611 167.166 66.34 168.037 65.4677 169.783C64.5984 171.532 63.3473 172.472 61.7186 172.609C59.8642 172.789 58.9358 172.007 58.9358 170.261C58.9358 169.171 60.3166 167.903 63.0759 166.449C65.972 164.931 68.7554 164.17 71.4247 164.17C76.0153 164.17 78.2889 166.36 78.2443 170.738L78.1074 184.753C78.0863 186.228 78.7088 186.965 79.9738 186.965C80.2235 186.965 80.6995 186.909 81.3992 186.795C82.102 186.682 82.5092 186.625 82.6226 186.625C83.2777 186.625 83.6053 187.069 83.6053 187.953ZM73.1548 180.196C73.1783 179.629 73.0462 179.253 72.7633 179.073C72.4804 178.892 72.0352 178.856 71.4247 178.97C65.972 179.945 63.246 181.727 63.246 184.312C63.246 186.92 64.6594 188.224 67.4873 188.224C68.6184 188.224 69.7851 188.009 70.9819 187.579C72.3863 187.078 73.086 186.478 73.086 185.774L73.1548 180.196Z" fill="#00AEFF"/>
<path d="M108.833 184.038C108.833 186.443 107.909 188.355 106.066 189.772C104.223 191.19 101.707 191.899 98.5161 191.899C96.3909 191.899 94.2627 191.672 92.1375 191.218C90.3043 190.809 89.2414 190.436 88.947 190.095C88.7654 189.777 88.6761 188.225 88.6761 185.434C88.6761 184.231 88.947 183.608 89.4911 183.563C90.0334 183.494 90.4973 183.79 90.8816 184.447C92.5779 187.419 95.316 188.905 99.0935 188.905C102.282 188.905 103.877 187.792 103.877 185.569C103.877 184.596 103.516 183.778 102.791 183.121C101.999 182.372 100.463 181.498 98.1771 180.501C94.8732 179.027 92.6677 177.734 91.5602 176.621C90.3604 175.442 89.7619 173.855 89.7619 171.858C89.7619 169.408 90.7 167.504 92.5779 166.143C94.3194 164.827 96.6497 164.17 99.567 164.17C101.4 164.17 103.074 164.316 104.591 164.612C106.22 164.907 107.068 165.269 107.136 165.701C107.315 166.97 107.69 168.808 108.255 171.213C108.324 171.506 108.005 171.745 107.305 171.926C106.559 172.085 106.061 171.96 105.812 171.553C104.026 168.626 101.763 167.163 99.0253 167.163C95.9264 167.163 94.3761 168.161 94.3761 170.157C94.3761 171.27 94.7954 172.153 95.6321 172.81C96.3789 173.377 98.1319 174.264 100.892 175.466C103.787 176.713 105.755 177.836 106.797 178.833C108.154 180.125 108.833 181.862 108.833 184.038Z" fill="#00AEFF"/>
<path d="M148.753 189.992C148.753 190.786 148.22 191.207 147.157 191.251C145.574 191.275 143.502 191.388 140.948 191.591C139.681 191.842 138.776 191.684 138.233 191.116C134.659 187.261 131.626 183.223 129.138 179.003C128.935 178.641 128.676 178.459 128.358 178.459C127.974 178.459 127.307 178.8 126.357 179.48C125.292 180.069 124.762 180.91 124.762 181.997C124.762 182.769 124.783 183.879 124.83 185.333C124.875 186.783 125.235 187.735 125.914 188.189C126.39 188.508 127.488 188.756 129.206 188.938C130.269 189.075 130.801 189.472 130.801 190.129C130.801 190.651 130.716 190.975 130.547 191.098C130.377 191.223 129.929 191.251 129.206 191.183C126.944 190.98 123.122 191.093 117.738 191.523C116.38 191.637 115.645 191.466 115.532 191.012C115.487 190.855 115.464 190.628 115.464 190.332C115.464 189.63 116.154 189.096 117.535 188.735C118.779 188.416 119.401 186.953 119.401 184.345V154.608C119.401 152.749 119.22 151.456 118.857 150.731C118.36 149.8 117.318 149.075 115.734 148.553C114.99 148.305 114.615 147.953 114.615 147.499C114.615 146.84 115.148 146.329 116.21 145.968C117.907 145.401 119.523 144.619 121.062 143.619C122.307 142.804 123.077 142.395 123.369 142.395C124.298 142.395 124.762 142.984 124.762 144.165C124.762 144.005 124.75 145.129 124.726 147.532C124.705 149.188 124.694 151.412 124.694 154.202L124.762 175.499C124.762 176.09 124.92 176.383 125.235 176.383C125.575 176.383 126.096 176.09 126.798 175.499C128.676 174.025 130.983 172.097 133.719 169.715C134.263 169.148 134.534 168.695 134.534 168.354C134.534 167.743 133.617 167.31 131.787 167.062C130.995 166.97 130.62 166.528 130.665 165.734C130.733 164.94 131.129 164.6 131.852 164.714C133.483 164.94 135.858 165.066 138.978 165.089C141.151 165.11 143.311 165.122 145.461 165.122C146.161 165.146 146.512 165.564 146.512 166.382C146.512 167.152 145.958 167.572 144.85 167.641C143.106 167.707 141.466 168.104 139.93 168.831C137.781 169.805 135.483 171.518 133.04 173.968C132.861 174.105 132.769 174.275 132.769 174.478C132.769 174.795 133.153 175.556 133.924 176.759C136.751 181.068 139.421 184.322 141.931 186.523C143.538 187.906 145.041 188.598 146.443 188.598C147.485 188.598 148.13 188.671 148.377 188.82C148.628 188.967 148.753 189.359 148.753 189.992Z" fill="#00AEFF"/>
</svg>
